<?xml version="1.0" encoding="UTF-8" standalone="no"?>
<!DOCTYPE svg PUBLIC "-//W3C//DTD SVG 1.1//EN" "http://www.w3.org/Graphics/SVG/1.1/DTD/svg11.dtd">
<svg xmlns="http://www.w3.org/2000/svg" version="1.1" viewBox="0.00 0.00 705.00 706.00">
<g stroke-width="2.00" fill="none" stroke-linecap="butt">
<path stroke="#6e3fbb" vector-effect="non-scaling-stroke" d="
  M 625.45 372.42
  Q 622.75 368.58 619.54 365.06
  Q 617.87 363.23 616.86 360.89
  Q 613.72 353.59 608.68 347.32"
/>
<path stroke="#6e3fbb" vector-effect="non-scaling-stroke" d="
  M 591.96 374.04
  Q 592.40 374.26 593.04 374.18"
/>
<path stroke="#6e3fbb" vector-effect="non-scaling-stroke" d="
  M 606.44 378.30
  Q 610.02 378.75 610.45 382.82"
/>
<path stroke="#6e3fbb" vector-effect="non-scaling-stroke" d="
  M 617.16 434.97
  C 619.37 436.28 621.51 438.04 619.94 440.60"
/>
<path stroke="#8b55e2" vector-effect="non-scaling-stroke" d="
  M 494.37 431.60
  Q 499.33 432.05 499.50 426.53"
/>
<path stroke="#6e3fbb" vector-effect="non-scaling-stroke" d="
  M 538.75 428.79
  Q 539.36 428.98 540.04 428.88"
/>
<path stroke="#6e3fbb" vector-effect="non-scaling-stroke" d="
  M 557.96 430.09
  Q 558.66 430.26 559.23 430.11"
/>
<path stroke="#8b55e2" vector-effect="non-scaling-stroke" d="
  M 536.34 356.36
  Q 536.27 352.51 533.14 351.25"
/>
<path stroke="#6e3fbb" vector-effect="non-scaling-stroke" d="
  M 551.54 346.79
  Q 552.08 346.93 552.71 346.87"
/>
<path stroke="#6e3fbb" vector-effect="non-scaling-stroke" d="
  M 553.96 347.06
  Q 554.40 347.26 555.04 347.14"
/>
<path stroke="#6e3fbb" vector-effect="non-scaling-stroke" d="
  M 566.03 347.80
  Q 566.45 348.01 567.04 347.87"
/>
<path stroke="#814dd4" vector-effect="non-scaling-stroke" d="
  M 312.60 427.54
  Q 312.05 427.35 311.54 427.75"
/>
<path stroke="#814dd4" vector-effect="non-scaling-stroke" d="
  M 310.78 427.98
  Q 310.35 428.01 309.96 428.18"
/>
<path stroke="#8b55e2" vector-effect="non-scaling-stroke" d="
  M 246.54 429.75
  Q 242.73 428.47 240.59 424.69"
/>
<path stroke="#814dd4" vector-effect="non-scaling-stroke" d="
  M 258.73 395.06
  L 256.04 395.13"
/>
<path stroke="#814dd4" vector-effect="non-scaling-stroke" d="
  M 279.73 370.39
  L 278.04 370.43"
/>
<path stroke="#8b55e2" vector-effect="non-scaling-stroke" d="
  M 246.03 371.36
  L 245.02 371.38"
/>
<path stroke="#8b55e2" vector-effect="non-scaling-stroke" d="
  M 234.62 371.68
  Q 230.78 369.67 233.26 366.46"
/>
<path stroke="#814dd4" vector-effect="non-scaling-stroke" d="
  M 250.51 365.85
  Q 251.53 366.02 252.46 365.79"
/>
<path stroke="#814dd4" vector-effect="non-scaling-stroke" d="
  M 288.22 364.86
  L 291.21 364.85"
/>
<path stroke="#8b55e2" vector-effect="non-scaling-stroke" d="
  M 405.04 364.80
  L 409.04 364.92"
/>
<path stroke="#6e3fbb" vector-effect="non-scaling-stroke" d="
  M 630.52 416.92
  C 632.20 414.44 630.01 412.94 627.77 412.61
  Q 625.46 412.27 623.46 411.43"
/>
<path stroke="#6e3fbb" vector-effect="non-scaling-stroke" d="
  M 224.04 406.13
  L 222.77 406.15"
/>
<path stroke="#6e3fbb" vector-effect="non-scaling-stroke" d="
  M 218.29 406.37
  Q 217.60 406.26 217.02 406.43"
/>
<path stroke="#6e3fbb" vector-effect="non-scaling-stroke" d="
  M 207.45 426.13
  Q 208.57 426.44 208.82 425.93"
/>
<path stroke="#6e3fbb" vector-effect="non-scaling-stroke" d="
  M 234.21 424.88
  Q 234.76 424.95 235.23 424.85"
/>
<path stroke="#6e3fbb" vector-effect="non-scaling-stroke" d="
  M 156.97 434.35
  Q 155.16 432.76 154.19 430.56
  Q 154.01 430.15 153.57 430.17
  Q 153.28 430.17 153.02 430.07
  Q 152.60 429.90 153.05 429.85
  L 163.46 428.52"
/>
<path stroke="#6e3fbb" vector-effect="non-scaling-stroke" d="
  M 170.21 428.13
  Q 171.88 428.48 172.57 428.01"
/>
<path stroke="#6e3fbb" vector-effect="non-scaling-stroke" d="
  M 173.19 428.00
  L 175.24 427.83"
/>
<path stroke="#6e3fbb" vector-effect="non-scaling-stroke" d="
  M 210.02 373.29
  Q 209.94 372.71 208.70 373.03"
/>
<path stroke="#6e3fbb" vector-effect="non-scaling-stroke" d="
  M 154.71 375.83
  L 152.54 375.98"
/>
<path stroke="#6e3fbb" vector-effect="non-scaling-stroke" d="
  M 135.04 384.92
  Q 133.20 386.12 132.25 385.76
  Q 131.37 385.42 131.49 383.71
  Q 131.70 380.66 133.78 377.72"
/>
<path stroke="#8b55e2" vector-effect="non-scaling-stroke" d="
  M 287.96 423.36
  L 289.21 423.36"
/>
<path stroke="#814dd4" vector-effect="non-scaling-stroke" d="
  M 299.71 423.12
  L 303.23 423.01"
/>
<path stroke="#8b55e2" vector-effect="non-scaling-stroke" d="
  M 380.96 422.85
  L 385.04 422.85"
/>
<path stroke="#8b55e2" vector-effect="non-scaling-stroke" d="
  M 438.95 424.04
  Q 439.43 424.22 440.04 424.13"
/>
<path stroke="#6e3fbb" vector-effect="non-scaling-stroke" d="
  M 177.20 392.90
  Q 179.33 393.24 181.24 392.89"
/>
<path stroke="#6e3fbb" vector-effect="non-scaling-stroke" d="
  M 186.82 392.87
  L 194.14 392.87"
/>
<path stroke="#6e3fbb" vector-effect="non-scaling-stroke" d="
  M 155.20 392.91
  Q 156.69 393.23 158.21 392.88"
/>
<path stroke="#6e3fbb" vector-effect="non-scaling-stroke" d="
  M 159.44 393.05
  Q 161.18 393.57 163.15 393.08"
/>
</g>
<path fill="#6437ad" d="
  M 670.82 262.36
  C 677.52 265.26 681.02 273.25 680.45 280.04
  C 679.63 289.80 666.57 294.33 658.79 296.25
  Q 657.35 296.61 653.71 300.28
  A 0.65 0.64 59.5 0 1 652.63 300.00
  Q 652.43 299.32 652.49 298.93
  Q 652.71 297.47 653.47 296.62
  Q 655.41 294.45 660.12 291.36
  Q 662.98 289.49 665.34 285.63
  Q 668.72 280.09 664.56 275.27
  Q 660.03 270.02 653.04 269.99
  C 644.51 269.96 636.26 273.57 627.67 277.02
  Q 620.54 279.89 616.41 280.62
  Q 609.06 281.93 601.99 281.51
  Q 601.54 281.48 601.60 281.03
  L 601.64 280.74
  Q 601.72 280.17 602.29 280.19
  Q 616.68 280.50 629.16 274.16
  Q 639.16 269.08 642.30 267.54
  Q 650.59 263.49 656.60 261.89
  Q 662.80 260.24 669.74 261.76
  Q 669.95 261.80 670.29 262.04
  Q 670.63 262.28 670.82 262.36
  Z
  M 672.13 270.45
  Q 673.54 272.99 674.12 276.42
  Q 675.28 283.25 669.95 288.46
  Q 669.59 288.81 670.09 288.90
  Q 670.33 288.94 670.66 288.72
  Q 680.53 282.17 677.19 272.26
  C 675.49 267.22 671.18 263.49 665.79 262.79
  Q 663.78 262.53 662.58 263.57
  A 0.54 0.54 0.0 0 0 662.75 264.49
  Q 663.18 264.65 667.43 265.91
  Q 670.03 266.69 672.13 270.45
  Z"
/>
<path fill="#6437ad" d="
  M 625.45 372.42
  Q 622.75 368.58 619.54 365.06
  Q 617.87 363.23 616.86 360.89
  Q 613.72 353.59 608.68 347.32
  Q 615.91 348.44 621.95 344.47
  C 628.50 340.18 630.27 333.27 629.88 325.75
  Q 629.65 321.38 625.61 320.41
  C 619.59 318.97 609.14 320.45 606.61 311.20
  C 605.31 306.42 607.06 302.38 611.18 299.67
  Q 612.87 298.55 614.39 298.52
  A 1.51 1.51 0.0 0 1 615.93 300.03
  L 615.93 303.85
  Q 615.93 304.29 616.36 304.39
  Q 617.06 304.55 617.36 304.10
  Q 618.81 301.96 618.29 299.50
  C 617.45 295.51 616.38 292.54 612.27 291.97
  Q 609.68 291.61 605.79 292.87
  Q 603.14 293.74 597.86 295.21
  Q 592.61 296.68 590.24 296.09
  Q 585.26 294.85 585.56 288.30
  Q 585.75 284.26 588.78 283.23
  Q 590.26 282.73 594.02 283.21
  Q 606.48 284.81 618.79 283.64
  C 620.78 283.45 623.58 282.58 625.74 281.59
  C 633.83 277.89 642.04 275.81 650.10 280.80
  Q 654.81 283.72 653.10 289.26
  Q 652.53 291.09 649.36 293.61
  Q 647.87 294.80 642.36 298.60
  Q 639.82 300.36 640.08 304.27
  Q 640.30 307.75 642.81 308.97
  C 644.97 310.02 649.69 308.39 651.99 308.30
  C 656.48 308.10 654.00 313.26 652.61 315.11
  C 649.34 319.48 646.93 321.74 646.12 325.69
  A 2.30 2.29 8.7 0 0 648.14 328.43
  C 654.26 329.04 658.61 324.44 663.42 320.17
  C 664.98 318.78 669.29 317.00 669.79 320.72
  Q 670.12 323.23 669.26 326.87
  Q 666.45 338.68 658.62 348.17
  Q 650.30 358.25 636.72 356.94
  C 630.64 356.35 625.22 354.95 620.99 358.15
  Q 618.53 360.01 619.30 362.67
  C 620.15 365.67 626.27 365.47 628.62 364.87
  Q 633.82 363.55 636.27 363.21
  Q 638.00 362.98 639.63 363.82
  Q 640.07 364.05 640.12 364.54
  Q 640.32 366.79 638.48 368.02
  Q 632.86 371.78 625.45 372.42
  Z
  M 645.73 291.75
  Q 648.01 291.92 649.38 289.05
  Q 650.20 287.33 649.48 285.86
  Q 648.46 283.80 647.06 283.22
  Q 635.25 278.32 625.01 285.21
  Q 623.82 286.01 625.20 285.63
  C 627.78 284.93 631.55 282.97 634.59 282.87
  Q 638.31 282.75 639.05 283.13
  Q 646.71 286.95 642.86 294.51
  Q 642.41 295.40 643.14 294.72
  Q 644.15 293.78 644.90 292.23
  Q 645.15 291.70 645.73 291.75
  Z
  M 651.21 345.35
  A 0.73 0.72 -74.9 0 1 650.59 344.26
  C 652.99 340.13 655.08 337.31 654.30 332.94
  Q 654.19 332.35 653.60 332.47
  Q 652.46 332.69 651.72 334.28
  C 650.37 337.16 649.64 342.45 647.72 345.17
  Q 644.53 349.68 637.83 349.83
  Q 634.07 349.91 629.00 349.64
  Q 627.46 349.56 625.96 350.29
  Q 623.64 351.40 626.21 351.53
  Q 628.96 351.66 633.50 352.43
  Q 638.29 353.25 640.67 353.11
  Q 651.80 352.46 657.83 343.76
  C 660.65 339.68 662.96 335.08 664.18 330.22
  Q 664.87 327.49 664.54 325.08
  A 1.00 1.00 0.0 0 0 662.86 324.50
  Q 661.46 325.85 660.77 327.54
  Q 657.66 335.07 655.85 339.35
  Q 654.52 342.48 652.35 345.11
  A 0.67 0.66 -69.9 0 1 651.84 345.35
  L 651.21 345.35
  Z"
/>
<path fill="#6437ad" d="
  M 666.08 348.09
  Q 668.25 344.72 670.50 336.88
  Q 670.65 336.39 671.16 336.33
  Q 671.30 336.32 671.45 336.37
  Q 671.94 336.55 671.89 337.06
  C 670.87 348.36 665.96 359.36 654.17 361.92
  Q 652.67 362.25 650.66 361.42
  A 1.80 1.80 0.0 0 1 649.74 358.94
  Q 650.40 357.64 651.72 357.19
  C 657.60 355.17 662.61 353.46 666.08 348.09
  Z"
/>
<path fill="#7846c8" d="
  M 608.68 347.32
  Q 613.72 353.59 616.86 360.89
  Q 617.87 363.23 619.54 365.06
  Q 622.75 368.58 625.45 372.42
  Q 616.68 374.34 609.11 370.54
  C 607.04 369.50 604.75 367.35 602.92 366.13
  C 599.83 364.07 597.19 364.44 592.77 365.32
  Q 586.86 366.50 581.13 368.91
  Q 578.78 369.90 581.24 370.60
  Q 581.58 370.69 584.76 371.05
  Q 587.01 371.31 587.78 373.07
  Q 587.98 373.54 588.48 373.60
  L 591.96 374.04
  Q 592.40 374.26 593.04 374.18
  Q 595.13 374.26 597.20 374.49
  Q 599.70 374.76 600.98 375.90
  Q 602.63 377.36 603.46 379.39
  Q 603.66 379.88 604.12 379.62
  L 606.44 378.30
  Q 610.02 378.75 610.45 382.82
  Q 605.66 384.71 601.80 389.80
  Q 591.31 403.67 576.56 423.57
  C 575.42 425.11 574.23 427.78 575.46 429.52
  Q 576.84 431.46 579.57 431.69
  Q 598.44 433.22 617.16 434.97
  C 619.37 436.28 621.51 438.04 619.94 440.60
  Q 600.08 438.86 580.14 437.21
  Q 575.38 436.81 574.47 436.19
  Q 571.49 434.14 569.71 430.93
  Q 569.30 430.19 568.78 430.86
  C 566.70 433.49 564.70 435.16 561.25 435.34
  Q 558.96 435.46 556.56 435.33
  Q 544.08 434.67 532.08 433.75
  Q 529.57 433.55 528.54 432.59
  Q 526.82 430.97 526.07 429.49
  Q 525.73 428.84 525.22 429.36
  Q 522.58 432.05 520.45 432.47
  Q 518.71 432.81 512.01 432.51
  Q 503.08 432.11 494.37 431.60
  Q 499.33 432.05 499.50 426.53
  Q 507.45 426.85 515.52 427.20
  Q 520.27 427.41 522.97 423.73
  Q 526.16 419.38 537.28 403.53
  Q 539.50 400.37 543.37 400.31
  Q 545.08 400.28 545.26 400.30
  Q 548.97 400.63 546.93 403.58
  Q 545.29 405.95 531.69 424.95
  Q 530.42 426.72 531.84 427.95
  A 1.53 1.45 -20.7 0 0 532.72 428.32
  L 538.75 428.79
  Q 539.36 428.98 540.04 428.88
  L 557.96 430.09
  Q 558.66 430.26 559.23 430.11
  Q 563.00 429.62 565.31 426.57
  Q 568.81 421.93 572.15 417.16
  C 574.80 413.37 576.46 408.48 572.94 404.57
  Q 570.50 401.85 561.04 401.22
  Q 558.60 401.06 560.34 398.98
  L 560.82 398.40
  A 4.92 4.40 -65.6 0 1 564.81 396.64
  C 569.70 397.11 572.96 397.62 576.71 397.09
  Q 589.51 395.31 597.32 383.81
  Q 598.35 382.30 598.18 381.54
  A 2.30 2.28 85.8 0 0 596.13 379.75
  Q 583.08 378.78 573.17 378.00
  Q 573.12 378.00 571.40 377.80
  Q 568.25 377.45 565.97 378.99
  Q 564.00 380.31 561.79 383.54
  Q 561.76 383.57 555.22 392.54
  A 7.28 7.24 -70.8 0 1 549.09 395.53
  L 547.56 395.47
  Q 543.39 395.31 545.83 391.99
  L 571.24 357.28
  A 3.05 2.15 -46.4 0 0 571.68 354.32
  Q 571.13 353.45 569.25 353.35
  Q 567.02 353.22 546.18 351.90
  Q 539.42 351.48 536.34 356.36
  Q 536.27 352.51 533.14 351.25
  Q 536.53 347.29 539.47 346.69
  Q 542.52 346.07 551.54 346.79
  Q 552.08 346.93 552.71 346.87
  Q 553.37 346.84 553.96 347.06
  Q 554.40 347.26 555.04 347.14
  L 566.03 347.80
  Q 566.45 348.01 567.04 347.87
  L 573.13 348.48
  Q 573.69 348.54 574.08 348.95
  L 576.87 351.91
  Q 577.21 352.27 577.23 352.77
  Q 577.26 353.74 577.25 357.07
  C 577.25 359.16 576.52 359.99 575.32 361.45
  A 0.63 0.63 0.0 0 0 575.80 362.48
  C 580.09 362.55 582.35 358.93 583.43 355.24
  Q 585.37 348.61 585.84 347.10
  Q 587.36 342.25 591.43 339.77
  A 1.48 1.47 -11.7 0 1 593.66 341.23
  L 592.54 348.92
  A 1.76 1.76 0.0 0 0 594.75 350.87
  Q 595.97 350.53 596.74 349.52
  C 598.41 347.31 598.40 342.41 603.12 344.77
  Q 605.90 346.16 608.68 347.32
  Z
  M 600.08 362.52
  Q 603.03 363.16 603.85 363.64
  Q 605.80 364.76 610.36 367.49
  Q 612.95 369.03 611.92 366.20
  C 608.79 357.52 599.03 356.77 592.02 360.85
  A 0.95 0.92 -12.6 0 0 591.56 361.55
  Q 591.44 362.78 592.79 362.51
  Q 596.58 361.77 600.08 362.52
  Z"
/>
<path fill="#6437ad" d="
  M 552.71 346.87
  Q 552.08 346.93 551.54 346.79
  L 552.71 346.87
  Z"
/>
<path fill="#6437ad" d="
  M 555.04 347.14
  Q 554.40 347.26 553.96 347.06
  Q 554.52 346.97 555.04 347.14
  Z"
/>
<path fill="#6437ad" d="
  M 567.04 347.87
  Q 566.45 348.01 566.03 347.80
  L 567.04 347.87
  Z"
/>
<path fill="#9d63fb" d="
  M 536.34 356.36
  Q 512.75 388.77 489.70 421.73
  Q 488.68 423.19 488.67 424.06
  A 1.91 1.83 -87.9 0 0 490.38 425.98
  L 499.50 426.53
  Q 499.33 432.05 494.37 431.60
  Q 491.96 431.56 489.69 431.36
  Q 487.15 431.15 485.90 430.00
  Q 484.02 428.30 483.50 426.68
  Q 483.30 426.06 482.78 426.45
  Q 478.09 429.98 473.52 430.32
  Q 471.32 430.49 465.59 430.28
  Q 432.86 429.08 410.07 428.68
  Q 407.32 428.63 405.14 427.38
  Q 404.16 426.82 401.29 423.15
  Q 400.99 422.76 400.68 423.15
  C 397.85 426.77 395.90 428.14 391.00 428.17
  Q 376.35 428.28 362.60 427.81
  Q 360.40 427.74 358.53 424.68
  Q 357.71 423.34 356.67 424.52
  C 354.81 426.63 352.84 427.90 349.75 427.89
  Q 342.39 427.87 321.75 427.93
  Q 320.84 427.93 319.56 426.44
  Q 318.52 425.22 317.33 424.14
  Q 316.97 423.81 316.68 424.21
  Q 314.99 426.52 312.60 427.54
  Q 312.05 427.35 311.54 427.75
  L 310.78 427.98
  Q 310.35 428.01 309.96 428.18
  Q 295.78 428.50 281.56 428.63
  Q 278.78 428.65 277.98 428.00
  Q 276.20 426.54 275.05 424.64
  A 0.63 0.62 -36.6 0 0 274.10 424.50
  Q 271.37 426.99 268.04 428.20
  Q 265.65 429.08 260.97 429.26
  Q 253.76 429.53 246.54 429.75
  Q 242.73 428.47 240.59 424.69
  Q 249.47 424.40 258.50 424.10
  Q 269.62 423.72 274.87 415.16
  Q 279.41 407.77 282.43 402.43
  Q 283.60 400.36 283.49 398.00
  Q 283.41 396.25 281.99 395.48
  Q 279.85 394.33 277.50 394.40
  Q 268.10 394.71 258.73 395.06
  L 256.04 395.13
  L 247.93 395.35
  A 1.68 1.68 0.0 0 1 246.21 393.56
  Q 246.26 392.85 246.71 391.93
  Q 247.17 391.01 253.67 379.76
  Q 255.60 376.42 259.44 375.96
  Q 260.88 375.78 261.16 375.78
  Q 265.17 375.78 263.27 379.05
  L 258.59 387.10
  A 1.90 1.84 -65.3 0 0 259.55 389.83
  Q 260.65 390.21 262.50 390.07
  Q 264.80 389.90 283.12 389.54
  Q 287.16 389.47 288.77 388.74
  Q 291.42 387.53 293.20 384.70
  Q 298.75 375.86 300.08 373.13
  Q 300.62 372.02 300.46 371.47
  A 2.08 2.03 -8.7 0 0 298.42 370.01
  L 279.73 370.39
  L 278.04 370.43
  L 246.03 371.36
  L 245.02 371.38
  L 234.62 371.68
  Q 230.78 369.67 233.26 366.46
  L 250.51 365.85
  Q 251.53 366.02 252.46 365.79
  L 288.22 364.86
  L 291.21 364.85
  Q 296.10 364.71 300.99 365.00
  Q 302.65 365.10 304.81 367.87
  Q 305.55 368.82 306.25 367.85
  Q 308.50 364.74 312.75 364.68
  Q 358.90 364.04 405.04 364.80
  L 409.04 364.92
  Q 415.76 364.49 419.59 366.37
  Q 422.59 367.84 425.67 372.22
  C 426.39 373.25 426.40 374.56 426.51 375.46
  Q 426.65 376.61 427.31 375.66
  Q 431.74 369.36 438.91 366.62
  Q 441.53 365.62 447.77 365.90
  Q 451.73 366.08 451.82 366.08
  Q 475.64 366.73 506.16 368.34
  Q 510.21 368.55 511.80 369.82
  Q 514.20 371.73 515.79 374.85
  A 0.10 0.10 0.0 0 0 515.96 374.87
  L 533.14 351.25
  Q 536.27 352.51 536.34 356.36
  Z
  M 287.96 423.36
  L 289.21 423.36
  L 299.71 423.12
  L 303.23 423.01
  C 305.72 423.02 308.75 423.13 310.97 421.91
  Q 312.76 420.93 313.40 419.88
  Q 324.65 401.43 339.29 377.97
  Q 341.40 374.59 345.38 374.59
  L 347.02 374.59
  Q 350.71 374.59 348.75 377.72
  Q 333.94 401.33 323.48 418.27
  Q 322.40 420.03 322.58 421.27
  A 1.66 1.65 -4.0 0 0 324.22 422.69
  Q 334.90 422.73 346.27 422.66
  C 349.81 422.64 352.44 421.92 354.27 419.01
  Q 363.99 403.52 380.24 378.30
  Q 382.32 375.08 386.14 374.84
  Q 387.49 374.76 387.97 374.79
  Q 391.64 375.07 389.75 377.96
  Q 378.47 395.24 363.81 418.31
  Q 363.05 419.52 362.90 420.61
  A 1.81 1.80 -86.2 0 0 364.67 422.64
  L 380.96 422.85
  L 385.04 422.85
  C 388.80 423.07 393.95 423.44 396.33 419.82
  Q 408.87 400.76 418.83 385.60
  C 424.50 376.98 420.12 370.43 410.29 370.22
  Q 360.69 369.16 315.51 369.76
  Q 310.88 369.83 308.47 373.71
  Q 296.34 393.15 280.18 420.37
  A 1.94 1.93 15.6 0 0 281.83 423.29
  L 287.96 423.36
  Z
  M 438.95 424.04
  Q 439.43 424.22 440.04 424.13
  Q 452.24 424.45 464.44 424.91
  Q 472.16 425.20 475.55 423.89
  Q 480.98 421.79 484.64 416.39
  Q 487.61 412.01 509.43 380.91
  Q 511.05 378.60 509.88 375.98
  C 509.15 374.33 506.65 373.76 505.06 373.67
  Q 480.34 372.30 450.83 371.31
  Q 443.90 371.08 440.80 372.14
  Q 435.26 374.04 432.28 378.28
  Q 428.78 383.26 407.52 415.78
  C 405.89 418.27 405.73 421.69 408.90 422.77
  Q 410.68 423.37 411.43 423.39
  Q 425.21 423.60 438.95 424.04
  Z"
/>
<path fill="#6437ad" d="
  M 291.21 364.85
  L 288.22 364.86
  L 291.21 364.85
  Z"
/>
<path fill="#7846c8" d="
  M 409.04 364.92
  L 405.04 364.80
  L 409.04 364.92
  Z"
/>
<path fill="#6437ad" d="
  M 252.46 365.79
  Q 251.53 366.02 250.51 365.85
  L 252.46 365.79
  Z"
/>
<path fill="#7846c8" d="
  M 233.26 366.46
  Q 230.78 369.67 234.62 371.68
  Q 228.46 372.33 224.19 375.87
  Q 221.20 378.34 217.89 384.52
  Q 216.65 386.83 212.67 393.95
  C 211.72 395.65 210.83 398.58 212.65 400.09
  Q 214.45 401.59 217.02 401.48
  Q 236.54 400.62 247.19 400.32
  A 1.88 1.88 0.0 0 1 249.10 402.54
  Q 248.96 403.32 248.27 404.53
  Q 241.75 415.95 241.65 416.10
  Q 239.27 419.57 236.31 419.81
  L 234.41 419.96
  Q 230.75 420.26 232.23 417.06
  Q 232.94 415.53 236.38 409.64
  Q 237.10 408.42 237.12 407.58
  A 1.89 1.85 89.6 0 0 235.19 405.63
  L 224.04 406.13
  L 222.77 406.15
  L 218.29 406.37
  Q 217.60 406.26 217.02 406.43
  C 213.92 406.54 208.77 406.28 206.48 407.60
  Q 204.18 408.94 202.63 411.63
  Q 199.41 417.25 196.68 422.20
  Q 195.93 423.54 195.80 424.53
  A 1.73 1.73 0.0 0 0 197.58 426.48
  L 207.45 426.13
  Q 208.57 426.44 208.82 425.93
  L 234.21 424.88
  Q 234.76 424.95 235.23 424.85
  L 240.59 424.69
  Q 242.73 428.47 246.54 429.75
  L 194.92 431.68
  Q 194.36 431.71 193.98 431.30
  L 190.67 427.79
  Q 190.31 427.41 189.95 427.79
  Q 185.21 432.64 176.88 433.11
  Q 166.91 433.68 156.97 434.35
  Q 155.16 432.76 154.19 430.56
  Q 154.01 430.15 153.57 430.17
  Q 153.28 430.17 153.02 430.07
  Q 152.60 429.90 153.05 429.85
  L 163.46 428.52
  L 170.21 428.13
  Q 171.88 428.48 172.57 428.01
  L 173.19 428.00
  L 175.24 427.83
  Q 181.68 427.45 186.21 423.65
  Q 189.08 421.24 192.76 414.52
  Q 202.02 397.60 211.57 380.83
  C 213.10 378.15 213.64 374.40 210.02 373.29
  Q 209.94 372.71 208.70 373.03
  L 154.71 375.83
  L 152.54 375.98
  Q 150.16 376.29 147.77 376.65
  Q 139.41 377.91 135.04 384.92
  Q 133.20 386.12 132.25 385.76
  Q 131.37 385.42 131.49 383.71
  Q 131.70 380.66 133.78 377.72
  Q 139.03 371.53 146.50 371.02
  Q 181.20 368.67 202.75 367.85
  Q 205.29 367.75 207.94 367.67
  Q 211.66 367.56 213.00 368.28
  Q 216.21 369.99 217.75 373.22
  Q 218.19 374.13 218.86 373.37
  Q 224.81 366.62 233.26 366.46
  Z"
/>
<path fill="#6437ad" d="
  M 279.73 370.39
  L 278.04 370.43
  L 279.73 370.39
  Z"
/>
<path fill="#7846c8" d="
  M 246.03 371.36
  L 245.02 371.38
  L 246.03 371.36
  Z"
/>
<path fill="#6437ad" d="
  M 210.02 373.29
  L 208.70 373.03
  Q 209.94 372.71 210.02 373.29
  Z"
/>
<path fill="#6437ad" d="
  M 133.78 377.72
  Q 131.70 380.66 131.49 383.71
  Q 131.37 385.42 132.25 385.76
  Q 133.20 386.12 135.04 384.92
  Q 124.85 404.06 114.76 423.06
  Q 113.33 425.75 113.37 428.25
  Q 113.40 429.95 115.09 430.94
  Q 116.82 431.96 120.01 431.69
  Q 141.71 429.89 163.46 428.52
  L 153.05 429.85
  Q 152.60 429.90 153.02 430.07
  Q 153.28 430.17 153.57 430.17
  Q 154.01 430.15 154.19 430.56
  Q 155.16 432.76 156.97 434.35
  Q 140.10 435.51 123.25 436.74
  C 120.26 436.96 117.24 436.83 114.25 436.77
  C 112.40 436.73 110.06 433.90 108.95 432.67
  Q 108.57 432.24 108.19 432.67
  Q 106.57 434.51 105.03 436.01
  C 103.02 437.96 101.65 438.48 98.80 438.77
  Q 84.09 440.22 76.50 440.78
  Q 73.83 440.98 68.82 440.82
  Q 68.28 440.81 67.91 440.41
  L 65.54 437.90
  Q 65.18 437.52 64.76 437.83
  Q 64.21 438.24 62.29 440.28
  Q 60.38 442.32 57.17 442.66
  Q 49.96 443.43 42.75 444.20
  Q 34.08 445.12 27.17 444.95
  Q 25.98 444.92 25.57 444.62
  Q 24.52 443.86 23.86 442.73
  Q 23.66 442.38 23.26 442.32
  L 22.88 442.27
  A 0.82 0.82 0.0 0 1 22.19 441.51
  Q 22.06 438.97 22.16 435.49
  Q 22.19 434.41 22.81 433.49
  Q 23.89 431.86 23.92 431.80
  Q 41.18 396.21 46.57 385.85
  Q 47.92 383.25 51.69 380.25
  Q 53.57 378.75 56.41 378.43
  Q 60.12 378.02 61.57 377.89
  Q 94.86 374.80 109.53 373.76
  Q 110.71 373.68 116.36 373.72
  Q 120.64 373.75 122.88 375.18
  Q 127.50 378.11 129.25 382.78
  A 0.23 0.23 0.0 0 0 129.67 382.81
  Q 131.15 379.95 133.78 377.72
  Z
  M 90.40 385.79
  Q 94.07 385.40 92.38 388.74
  L 69.79 433.40
  Q 69.68 433.61 69.99 434.53
  Q 70.43 435.88 73.83 435.59
  Q 84.75 434.64 95.75 433.60
  C 99.30 433.26 101.99 432.18 103.60 429.12
  Q 115.47 406.49 122.33 393.11
  C 124.52 388.85 125.07 382.95 120.18 380.28
  C 116.65 378.36 111.17 379.03 107.08 379.36
  Q 81.00 381.49 58.92 383.67
  Q 54.01 384.16 52.11 387.90
  Q 40.62 410.43 27.65 437.53
  A 1.54 1.54 0.0 0 0 28.64 439.68
  Q 29.96 440.03 32.01 439.82
  Q 44.95 438.48 53.53 437.56
  Q 56.41 437.25 57.89 436.48
  Q 60.15 435.29 61.21 433.18
  Q 72.08 411.32 83.07 389.79
  Q 84.81 386.39 88.75 385.97
  L 90.40 385.79
  Z"
/>
<path fill="#6437ad" d="
  M 593.04 374.18
  Q 592.40 374.26 591.96 374.04
  L 593.04 374.18
  Z"
/>
<path fill="#6437ad" d="
  M 154.71 375.83
  L 152.54 375.98
  L 154.71 375.83
  Z"
/>
<path fill="#9d63fb" d="
  M 469.98 388.79
  L 493.25 388.79
  Q 494.68 388.79 493.38 389.38
  L 465.74 402.19
  Q 465.03 402.53 464.79 403.28
  L 460.17 418.22
  A 0.24 0.24 0.0 0 1 459.75 418.30
  L 452.48 408.76
  Q 452.32 408.55 452.08 408.66
  L 425.83 420.83
  A 0.11 0.11 0.0 0 1 425.69 420.69
  Q 425.78 420.45 426.13 420.13
  Q 437.62 409.36 446.20 401.14
  Q 446.52 400.83 446.25 400.47
  L 437.73 389.30
  Q 437.34 388.78 437.99 388.78
  L 458.69 388.78
  Q 459.15 388.78 459.49 388.46
  L 472.56 376.12
  Q 473.71 375.04 473.24 376.55
  L 469.61 388.29
  A 0.39 0.39 0.0 0 0 469.98 388.79
  Z"
/>
<path fill="#6437ad" d="
  M 619.94 440.60
  C 621.51 438.04 619.37 436.28 617.16 434.97
  Q 626.78 435.77 636.26 436.66
  Q 645.77 437.56 651.55 431.05
  Q 656.19 425.82 658.26 422.56
  Q 659.53 420.56 657.15 419.65
  A 1.76 1.73 -31.5 0 0 656.63 419.53
  L 630.52 416.92
  C 632.20 414.44 630.01 412.94 627.77 412.61
  Q 625.46 412.27 623.46 411.43
  Q 641.60 412.83 659.75 414.62
  Q 664.29 415.07 667.07 411.57
  Q 670.83 406.81 674.46 401.96
  C 677.54 397.85 678.83 392.07 673.79 388.82
  Q 671.04 387.05 668.30 386.73
  Q 646.45 384.19 617.00 381.62
  Q 614.64 381.42 610.45 382.82
  Q 610.02 378.75 606.44 378.30
  Q 609.44 376.73 612.75 376.55
  Q 618.66 376.23 625.31 376.86
  Q 657.18 379.85 670.82 381.48
  Q 673.56 381.81 676.72 383.77
  Q 677.90 384.51 682.29 389.64
  Q 682.63 390.04 682.65 390.56
  Q 682.80 394.30 682.79 397.41
  Q 682.79 399.58 681.33 401.88
  Q 677.49 407.94 673.02 413.13
  C 669.98 416.67 668.19 419.09 664.49 419.97
  Q 663.58 420.19 663.69 421.11
  Q 664.09 424.35 663.17 425.67
  Q 661.16 428.57 656.97 433.47
  C 651.97 439.33 646.96 442.37 639.10 442.13
  Q 629.52 441.84 619.94 440.60
  Z"
/>
<path fill="#7846c8" d="
  M 177.20 392.90
  Q 179.33 393.24 181.24 392.89
  L 186.82 392.87
  L 194.14 392.87
  Q 196.08 392.66 197.14 392.82
  Q 198.67 393.04 197.26 393.69
  L 169.84 406.40
  A 1.53 1.48 -4.9 0 0 169.03 407.33
  L 164.43 422.18
  A 0.37 0.36 35.1 0 1 163.79 422.29
  L 156.84 413.17
  Q 156.50 412.72 155.98 412.96
  L 131.03 424.53
  Q 129.10 425.42 130.65 423.96
  L 150.51 405.22
  Q 150.72 405.02 150.54 404.79
  L 142.06 393.65
  Q 141.49 392.91 142.42 392.91
  L 155.20 392.91
  Q 156.69 393.23 158.21 392.88
  Q 158.90 392.86 159.44 393.05
  Q 161.18 393.57 163.15 393.08
  L 176.98 379.88
  Q 177.97 378.95 177.56 380.24
  L 173.78 392.49
  A 0.49 0.49 0.0 0 0 174.28 393.12
  L 177.20 392.90
  Z"
/>
<path fill="#6437ad" d="
  M 639.62 400.37
  Q 637.06 403.56 636.33 404.35
  Q 632.58 408.40 627.43 406.34
  A 1.40 1.39 28.3 0 1 626.80 404.24
  Q 629.60 400.23 633.35 395.55
  Q 635.91 392.37 636.64 391.58
  Q 640.39 387.52 645.54 389.58
  A 1.40 1.39 28.3 0 1 646.17 391.68
  Q 643.37 395.70 639.62 400.37
  Z"
/>
<path fill="#6437ad" d="
  M 158.21 392.88
  Q 156.69 393.23 155.20 392.91
  L 158.21 392.88
  Z"
/>
<path fill="#6437ad" d="
  M 181.24 392.89
  Q 179.33 393.24 177.20 392.90
  L 181.24 392.89
  Z"
/>
<path fill="#6437ad" d="
  M 194.14 392.87
  L 186.82 392.87
  L 194.14 392.87
  Z"
/>
<path fill="#6437ad" d="
  M 163.15 393.08
  Q 161.18 393.57 159.44 393.05
  Q 161.16 392.66 163.15 393.08
  Z"
/>
<path fill="#6437ad" d="
  M 258.73 395.06
  L 256.04 395.13
  L 258.73 395.06
  Z"
/>
<path fill="#6437ad" d="
  M 224.04 406.13
  L 222.77 406.15
  L 224.04 406.13
  Z"
/>
<path fill="#6437ad" d="
  M 218.29 406.37
  L 217.02 406.43
  Q 217.60 406.26 218.29 406.37
  Z"
/>
<path fill="#7846c8" d="
  M 623.46 411.43
  Q 625.46 412.27 627.77 412.61
  C 630.01 412.94 632.20 414.44 630.52 416.92
  Q 626.62 417.31 624.22 420.47
  Q 621.44 424.13 619.13 426.98
  Q 616.90 429.75 613.39 429.52
  L 611.59 429.41
  Q 607.98 429.18 610.05 426.26
  Q 614.13 420.54 618.86 414.60
  Q 619.77 413.46 620.94 412.76
  Q 622.09 412.06 623.46 411.43
  Z"
/>
<path fill="#7846c8" d="
  M 385.04 422.85
  L 380.96 422.85
  L 385.04 422.85
  Z"
/>
<path fill="#6437ad" d="
  M 303.23 423.01
  L 299.71 423.12
  L 303.23 423.01
  Z"
/>
<path fill="#7846c8" d="
  M 289.21 423.36
  L 287.96 423.36
  L 289.21 423.36
  Z"
/>
<path fill="#7846c8" d="
  M 440.04 424.13
  Q 439.43 424.22 438.95 424.04
  L 440.04 424.13
  Z"
/>
<path fill="#6437ad" d="
  M 235.23 424.85
  Q 234.76 424.95 234.21 424.88
  L 235.23 424.85
  Z"
/>
<path fill="#6437ad" d="
  M 208.82 425.93
  Q 208.57 426.44 207.45 426.13
  L 208.82 425.93
  Z"
/>
<path fill="#6437ad" d="
  M 312.60 427.54
  Q 312.12 427.90 311.54 427.75
  Q 312.05 427.35 312.60 427.54
  Z"
/>
<path fill="#6437ad" d="
  M 175.24 427.83
  L 173.19 428.00
  Q 174.00 427.73 175.24 427.83
  Z"
/>
<path fill="#6437ad" d="
  M 172.57 428.01
  Q 171.88 428.48 170.21 428.13
  L 172.57 428.01
  Z"
/>
<path fill="#6437ad" d="
  M 310.78 427.98
  Q 310.44 428.16 309.96 428.18
  Q 310.35 428.01 310.78 427.98
  Z"
/>
<path fill="#6437ad" d="
  M 540.04 428.88
  Q 539.36 428.98 538.75 428.79
  L 540.04 428.88
  Z"
/>
<path fill="#6437ad" d="
  M 559.23 430.11
  Q 558.66 430.26 557.96 430.09
  L 559.23 430.11
  Z"
/>
</svg>
